<?xml version="1.0" encoding="utf-8"?>
<!-- Svg Vector Icons : http://www.onlinewebfonts.com/icon -->
<!DOCTYPE svg PUBLIC "-//W3C//DTD SVG 1.1//EN" "http://www.w3.org/Graphics/SVG/1.1/DTD/svg11.dtd">
<svg version="1.1" xmlns="http://www.w3.org/2000/svg" xmlns:xlink="http://www.w3.org/1999/xlink" x="0px" y="0px" viewBox="0 0 1000 1000" enable-background="new 0 0 1000 1000" xml:space="preserve">
<metadata> Svg Vector Icons : http://www.onlinewebfonts.com/icon </metadata>
<g><g><g><path d="M723.7,520.4c-81.4-48.7-185-75.4-292-75.4c-68.3,0-115.3,9.7-161.3,22.4c-17,4.8-25.4,16.8-25.4,34.1c0,17.7,14.4,32.1,31.9,32.1c7.5,0,11.9-2.4,19.9-4.6c37-9.9,81.7-17.1,133.5-17.1c101,0,193.2,26.2,259.7,65.7c6,3.5,11.6,7.1,20.5,7.1c17.8,0,31.9-14.3,31.9-32C742.4,538.2,737.3,528.2,723.7,520.4z"/><path d="M675.2,640.2c-68.6-41.1-148.4-61.7-237.9-61.7c-52.3,0-102.6,6.6-153.1,18.1c-12.3,2.4-22.3,10.9-22.3,28.1c0,13.4,10.4,25.7,25.9,25.7c5,0,13.5-2.6,20.2-4c41.2-8.6,85.2-14.2,129-14.2c78.4,0,152.4,18.8,211.6,54.7c6.2,3.7,10.7,6,17.3,6c13.5,0,25.4-10.8,25.4-25.6C691.4,652.3,685.4,646.2,675.2,640.2z"/><path d="M778.7,383.4c-92.3-54.2-218.7-78.9-338.8-78.9c-70.7,0-135.8,8-194.1,25.2c-14.9,4.4-28.6,16.9-28.6,39.1c0,21.8,16.7,39.1,38.6,39.1c7.5,0,15-3,21-4.5c51.6-14,107.9-19.6,163.4-19.6c111.1,0,226,24.4,300,68.8c7.8,4.3,12.7,6.3,21.1,6.3c20.7,0,38.6-16,38.6-38.3C799.8,401,791.2,390.4,778.7,383.4z"/><path d="M937.9,10H62.1C33.3,10,10,33.3,10,62.1v875.7c0,28.8,23.3,52.1,52.1,52.1h875.7c28.8,0,52.1-23.3,52.1-52.1V62.1C990,33.3,966.7,10,937.9,10z M500,909C274.1,909,91,725.9,91,500C91,274.1,274.1,91,500,91c225.9,0,409,183.1,409,409C909,725.9,725.9,909,500,909z"/></g></g><g></g><g></g><g></g><g></g><g></g><g></g><g></g><g></g><g></g><g></g><g></g><g></g><g></g><g></g><g></g></g>
</svg>